<svg version="1.0" xmlns="http://www.w3.org/2000/svg" width="341.333" height="341.333" viewBox="0 0 256 256"><path d="M82.7 76.3c-43.2 22.1-49.8 26.2-51.3 32-.4 2-.1 3.4 1.2 4.8 3.2 3.6 9.5 2.1 37.9-8.6 14.3-5.3 26.9-9.9 28-10 3.6-.5 5.3 1.8 11.4 15.1l6 12.9-2.4 2c-1.4 1.1-14.8 9.4-29.9 18.5-25.9 15.5-27.4 16.6-25.9 18.2 3.8 4.2 18.6 4.8 31.9 1.4 3.3-.8 7.1-1.7 8.5-1.9 1.4-.3 9-2.3 17-4.5 20-5.6 27-7.2 37.4-8.6l9-1.2-.1-3.5c-.1-2.6-2-6.6-7.1-14.5-3.9-6-13.6-21.5-21.7-34.4-8.1-12.9-16-24.7-17.7-26.3-5-4.6-7.5-4-32.2 8.6zM192.3 81.1c-18.3 3.3-28 22.6-19.7 39.6 7.8 16.1 28.8 19.9 43.1 7.9 4.8-4.1 8.6-12.7 8.6-19.9.1-17.2-15.3-30.5-32-27.6z"/><path d="M2.4 164.9c1.9 3.6 7.8 11.4 12.5 16.4 8.1 8.7 23.9 17.8 36.6 21.1 9.4 2.4 15.9 3 31 2.8 23.4-.2 37.4-2.6 60.5-10.2 12.3-4 20.6-6.3 28.5-7.6 4.5-.8 42.7-.8 48.9 0 2.3.3 7.7.8 12.1 1.2 4.4.3 8.7.7 9.5.9.8.1 4 .6 7 1l5.5.7-2.5-1.9c-14.7-11.4-31.2-18.7-51.6-22.8-3.6-.7-23.8-.8-26.2-.1-.9.2-3.7.7-6.2 1-7.3 1-9.6 1.5-30 6.6-10.7 2.7-21 5.2-22.9 5.5-1.9.3-3.7.8-4.1 1-.3.2-2.9.7-5.6 1.1-2.7.3-5.1.7-5.4.9-.9.6-15.5 1.6-23.5 1.7-24.8.3-51.4-6.8-70.3-18.8L.9 162l1.5 2.9z"/></svg>
