<?xml version="1.0" standalone="no"?>
<!DOCTYPE svg PUBLIC "-//W3C//DTD SVG 20010904//EN"
 "http://www.w3.org/TR/2001/REC-SVG-20010904/DTD/svg10.dtd">
<svg version="1.0" xmlns="http://www.w3.org/2000/svg"
 width="256.000000pt" height="256.000000pt" viewBox="0 0 256.000000 256.000000"
 preserveAspectRatio="xMidYMid meet">
<metadata>
Created by potrace 1.14, written by Peter Selinger 2001-2017
</metadata>
<g transform="translate(0.000000,256.000000) scale(0.100000,-0.100000)"
fill="#000000" stroke="none">
<path d="M827 1797 c-432 -221 -498 -262 -513 -320 -4 -20 -1 -34 12 -48 32
-36 95 -21 379 86 143 53 269 99 280 100 36 5 53 -18 114 -151 l60 -129 -24
-20 c-14 -11 -148 -94 -299 -185 -259 -155 -274 -166 -259 -182 38 -42 186
-48 319 -14 33 8 71 17 85 19 14 3 90 23 170 45 200 56 270 72 374 86 l90 12
-1 35 c-1 26 -20 66 -71 145 -39 60 -136 215 -217 344 -81 129 -160 247 -177
263 -50 46 -75 40 -322 -86z"/>
<path d="M1923 1749 c-183 -33 -280 -226 -197 -396 78 -161 288 -199 431 -79
48 41 86 127 86 199 1 172 -153 305 -320 276z"/>
<path d="M24 911 c19 -36 78 -114 125 -164 81 -87 239 -178 366 -211 94 -24
159 -30 310 -28 234 2 374 26 605 102 123 40 206 63 285 76 45 8 427 8 489 0
23 -3 77 -8 121 -12 44 -3 87 -7 95 -9 8 -1 40 -6 70 -10 l55 -7 -25 19 c-147
114 -312 187 -516 228 -36 7 -238 8 -262 1 -9 -2 -37 -7 -62 -10 -73 -10 -96
-15 -300 -66 -107 -27 -210 -52 -229 -55 -19 -3 -37 -8 -41 -10 -3 -2 -29 -7
-56 -11 -27 -3 -51 -7 -54 -9 -9 -6 -155 -16 -235 -17 -248 -3 -514 68 -703
188 l-53 34 15 -29z"/>
</g>
</svg>
